<svg id="Layer_1" data-name="Layer 1" xmlns="http://www.w3.org/2000/svg" viewBox="0 0 172 135"><path d="M17.3,129.26H16.17l.18-.89a2,2,0,0,1,.52-1.1,1.32,1.32,0,0,1,.91-.34l-.11.52a.84.84,0,0,0-.43.23,1.16,1.16,0,0,0-.24.5h.52l-.22,1.08Zm-1.88,0H14.28l.19-.89a2.05,2.05,0,0,1,.51-1.1,1.35,1.35,0,0,1,.92-.34l-.11.52a.92.92,0,0,0-.44.23,1.06,1.06,0,0,0-.23.5h.52l-.22,1.08Zm2.11,3.47h1.18l1.2-5.73H18.73l-1.2,5.73Zm3.11-4.16h1.08l-.11.55a2.71,2.71,0,0,1,.75-.5,1.8,1.8,0,0,1,.73-.15,1.08,1.08,0,0,1,.81.3,1.06,1.06,0,0,1,.3.79,4.83,4.83,0,0,1-.14.82l-.51,2.35H22.43l.51-2.36c.08-.35.11-.56.12-.63a.42.42,0,0,0-.13-.34.48.48,0,0,0-.36-.13,1,1,0,0,0-.55.21,1.51,1.51,0,0,0-.48.55,4.39,4.39,0,0,0-.29,1l-.35,1.71H19.77l.87-4.16Zm4.26.84.17-.84h.55l.14-.65,1.27-.77-.29,1.42h.68l-.17.84h-.68l-.37,1.75a4.06,4.06,0,0,0-.1.54.28.28,0,0,0,.08.2.46.46,0,0,0,.3.07l.37,0-.18.83a2.88,2.88,0,0,1-.59.06,1.34,1.34,0,0,1-.86-.23A.8.8,0,0,1,25,132a5.66,5.66,0,0,1,.15-.88l.36-1.67ZM31.29,131a3.29,3.29,0,0,0,.08-.74,1.85,1.85,0,0,0-.45-1.32,1.63,1.63,0,0,0-1.22-.47,2.14,2.14,0,0,0-1.84.9,2.61,2.61,0,0,0-.47,1.52,1.9,1.9,0,0,0,.52,1.41,1.86,1.86,0,0,0,1.37.53,2.06,2.06,0,0,0,1.1-.3,2.09,2.09,0,0,0,.79-.91l-1-.17a1,1,0,0,1-.88.58.78.78,0,0,1-.59-.25,1,1,0,0,1-.24-.68s0-.06,0-.1Zm-.95-.68H28.58a1.37,1.37,0,0,1,.38-.78.86.86,0,0,1,.62-.27.72.72,0,0,1,.56.23,1,1,0,0,1,.21.7s0,.07,0,.12ZM31.6,133l1.19.17a.49.49,0,0,0,.06.27.38.38,0,0,0,.19.16.68.68,0,0,0,.35.07,1.2,1.2,0,0,0,.61-.14.87.87,0,0,0,.28-.36,4.56,4.56,0,0,0,.17-.67l0-.19a2,2,0,0,1-1.27.48,1.27,1.27,0,0,1-1-.43,1.81,1.81,0,0,1-.39-1.26,3.41,3.41,0,0,1,.26-1.34,2.07,2.07,0,0,1,.75-.93,1.78,1.78,0,0,1,1-.31,1.34,1.34,0,0,1,.75.22,1.49,1.49,0,0,1,.54.62l.14-.74h1.06l-.67,3.48c-.12.55-.22.94-.3,1.18a2.16,2.16,0,0,1-.28.57,1.27,1.27,0,0,1-.41.35,1.82,1.82,0,0,1-.57.2,3.26,3.26,0,0,1-.72.07,2.4,2.4,0,0,1-1.33-.3,1.12,1.12,0,0,1-.45-1c0-.05,0-.11,0-.17Zm1.33-2a1.09,1.09,0,0,0,.21.72.66.66,0,0,0,.53.25.92.92,0,0,0,.58-.22,1.37,1.37,0,0,0,.43-.64,2.33,2.33,0,0,0,.16-.8,1,1,0,0,0-.25-.71.74.74,0,0,0-.57-.27.78.78,0,0,0-.55.24,1.72,1.72,0,0,0-.42.74,2.28,2.28,0,0,0-.12.69Zm4.39-2.37h1.06l-.16.78a1.56,1.56,0,0,1,1.26-.88,1.26,1.26,0,0,1,.51.12l-.43.92a.88.88,0,0,0-.33-.06,1.05,1.05,0,0,0-.59.22,1.62,1.62,0,0,0-.47.59,6.17,6.17,0,0,0-.33,1.16l-.27,1.31H36.45l.87-4.16ZM40.8,127h1.12l-.22,1H40.58l.22-1Zm-.33,1.57-.87,4.16h1.12l.87-4.16Zm1.6.84.17-.84h.55l.14-.65,1.27-.77-.29,1.42h.68l-.17.84h-.68l-.37,1.75c-.06.31-.1.49-.1.54a.28.28,0,0,0,.08.2.47.47,0,0,0,.3.07l.37,0-.18.83a2.88,2.88,0,0,1-.59.06,1.34,1.34,0,0,1-.86-.23.8.8,0,0,1-.27-.64,5.66,5.66,0,0,1,.15-.88l.36-1.67Zm2.69-.84.73,4.16c-.22.52-.5.78-.85.78a1.32,1.32,0,0,1-.39-.06l-.1.84a2.77,2.77,0,0,0,.8.13,1.41,1.41,0,0,0,.61-.13,1.39,1.39,0,0,0,.44-.36,6,6,0,0,0,.5-.79l2.56-4.57H47.87l-1,1.85a9.1,9.1,0,0,0-.61,1.34q0-.31-.12-1.11l-.28-2.08Zm4,3.08h1.13l-.19.89a2.05,2.05,0,0,1-.51,1.1,1.41,1.41,0,0,1-.92.33l.11-.52a.91.91,0,0,0,.44-.22,1.11,1.11,0,0,0,.22-.5h-.51l.23-1.08Zm5.75-1.92-1.09-.09a1.61,1.61,0,0,1,.65-.86,2.21,2.21,0,0,1,1.24-.31,1.86,1.86,0,0,1,1.19.32,1,1,0,0,1,.38.79,2.8,2.8,0,0,1,0,.4c0,.14-.1.51-.23,1.11a5.93,5.93,0,0,0-.17,1,2,2,0,0,0,.1.59h-1.1a2.43,2.43,0,0,1-.08-.47,1.69,1.69,0,0,1-.57.42,1.5,1.5,0,0,1-.64.15,1.15,1.15,0,0,1-.86-.34,1.19,1.19,0,0,1-.33-.87,1.27,1.27,0,0,1,.37-1,2.11,2.11,0,0,1,1.32-.43,5.16,5.16,0,0,0,1.07-.16,1.28,1.28,0,0,0,.07-.38.39.39,0,0,0-.14-.3.67.67,0,0,0-.43-.12.85.85,0,0,0-.48.12.6.6,0,0,0-.24.34Zm1.07,1.05a1.46,1.46,0,0,1-.27.05,2.58,2.58,0,0,0-1.1.3.49.49,0,0,0-.19.39.46.46,0,0,0,.15.34.49.49,0,0,0,.37.13,1,1,0,0,0,.48-.12.85.85,0,0,0,.33-.32,2.13,2.13,0,0,0,.2-.62l0-.15Zm4.58.39,1.08.17a2.27,2.27,0,0,1-.79,1.11,2,2,0,0,1-1.22.38,1.71,1.71,0,0,1-1.26-.47,1.79,1.79,0,0,1-.46-1.31,3,3,0,0,1,.28-1.28,2.1,2.1,0,0,1,.84-1,2.38,2.38,0,0,1,1.25-.35,1.73,1.73,0,0,1,1.17.38,1.5,1.5,0,0,1,.49,1L60.5,130a.81.81,0,0,0-.22-.51.61.61,0,0,0-.45-.17.92.92,0,0,0-.61.24,1.58,1.58,0,0,0-.43.73,3.14,3.14,0,0,0-.15.91.81.81,0,0,0,.18.57.59.59,0,0,0,.45.2.84.84,0,0,0,.52-.19,1.45,1.45,0,0,0,.39-.59Zm4.41,0,1.09.17a2.23,2.23,0,0,1-.8,1.11,2,2,0,0,1-1.22.38,1.7,1.7,0,0,1-1.25-.47,1.79,1.79,0,0,1-.47-1.31,3.1,3.1,0,0,1,.28-1.28,2.12,2.12,0,0,1,.85-1,2.35,2.35,0,0,1,1.24-.35,1.78,1.78,0,0,1,1.18.38,1.5,1.5,0,0,1,.49,1l-1.07.11a.75.75,0,0,0-.21-.51.65.65,0,0,0-.46-.17.92.92,0,0,0-.6.24,1.58,1.58,0,0,0-.43.73,3.14,3.14,0,0,0-.15.91.86.86,0,0,0,.17.57.59.59,0,0,0,.45.2.82.82,0,0,0,.52-.19,1.28,1.28,0,0,0,.39-.59Zm5.65-.17H67.42v.1a1,1,0,0,0,.24.68.76.76,0,0,0,.58.25,1,1,0,0,0,.88-.58l1,.17a2,2,0,0,1-.78.91,2.1,2.1,0,0,1-1.11.3,1.84,1.84,0,0,1-1.36-.53,1.91,1.91,0,0,1-.53-1.41,2.55,2.55,0,0,1,.48-1.52,2.12,2.12,0,0,1,1.84-.9,1.6,1.6,0,0,1,1.21.47,1.85,1.85,0,0,1,.45,1.32,2.8,2.8,0,0,1-.08.74Zm-.94-.68v-.12a1,1,0,0,0-.21-.7.7.7,0,0,0-.55-.23.9.9,0,0,0-.63.27,1.43,1.43,0,0,0-.37.78Zm1.17,1.25,1.09-.17a1.14,1.14,0,0,0,.36.49,1.08,1.08,0,0,0,.58.14,1.06,1.06,0,0,0,.62-.17.38.38,0,0,0,.16-.29.29.29,0,0,0-.09-.21,1.68,1.68,0,0,0-.46-.21,5,5,0,0,1-1.26-.53,1,1,0,0,1-.37-.8,1.16,1.16,0,0,1,.36-.85,2.07,2.07,0,0,1,1.52-.5,2.12,2.12,0,0,1,1.21.29,1.36,1.36,0,0,1,.52.8l-1,.18a.71.71,0,0,0-.27-.34,1.14,1.14,0,0,0-.6-.15.82.82,0,0,0-.5.11.36.36,0,0,0-.16.27.31.31,0,0,0,.16.26,2.56,2.56,0,0,0,.63.22,3.39,3.39,0,0,1,1.09.47,1,1,0,0,1,.39.79,1.35,1.35,0,0,1-.5,1,2,2,0,0,1-1.39.43,2.48,2.48,0,0,1-1.39-.33,1.64,1.64,0,0,1-.67-.93Zm4.42,0L76,131.4a1.14,1.14,0,0,0,.36.49,1.06,1.06,0,0,0,.58.14,1,1,0,0,0,.61-.17.35.35,0,0,0,.16-.29.28.28,0,0,0-.08-.21,1.86,1.86,0,0,0-.46-.21,4.86,4.86,0,0,1-1.26-.53,1,1,0,0,1-.38-.8,1.17,1.17,0,0,1,.37-.85,2.07,2.07,0,0,1,1.52-.5,2.14,2.14,0,0,1,1.21.29,1.36,1.36,0,0,1,.52.8l-1,.18a.64.64,0,0,0-.26-.34,1.16,1.16,0,0,0-.6-.15.88.88,0,0,0-.51.11.34.34,0,0,0-.15.27.29.29,0,0,0,.16.26,2.59,2.59,0,0,0,.62.22,3.47,3.47,0,0,1,1.1.47,1,1,0,0,1,.39.79,1.35,1.35,0,0,1-.5,1,2,2,0,0,1-1.4.43,2.43,2.43,0,0,1-1.38-.33,1.64,1.64,0,0,1-.67-.93ZM80.65,127h1.12l-.21,1H80.44l.21-1Zm-.33,1.57h1.12l-.87,4.16H79.45l.87-4.16Zm1.29,4.16h1l.15-.67a1.39,1.39,0,0,0,1.31.77,1.64,1.64,0,0,0,.72-.16,2.3,2.3,0,0,0,.66-.5,2.42,2.42,0,0,0,.49-.87,3.22,3.22,0,0,0,.19-1.1,1.83,1.83,0,0,0-.4-1.29,1.34,1.34,0,0,0-1-.44,1.59,1.59,0,0,0-.59.1,2.06,2.06,0,0,0-.58.33l.41-1.9H82.81l-1.2,5.73Zm1.5-1.69a2.18,2.18,0,0,1,.42-1.38.92.92,0,0,1,.74-.39.71.71,0,0,1,.55.25,1,1,0,0,1,.23.7,2.62,2.62,0,0,1-.17.91,1.52,1.52,0,0,1-.43.66.88.88,0,0,1-.54.2.76.76,0,0,1-.56-.26,1,1,0,0,1-.24-.69Zm3.38,1.69,1.2-5.73h1.12l-1.2,5.73Zm3.4-5.73H91l-.21,1H89.67l.22-1Zm-.34,1.57-.87,4.16H89.8l.88-4.16Zm1.61.84.17-.84h.55l.14-.65,1.27-.77L93,128.57h.67l-.16.84h-.68l-.37,1.75a4.06,4.06,0,0,0-.1.54.28.28,0,0,0,.08.2.46.46,0,0,0,.3.07l.37,0-.18.83a2.88,2.88,0,0,1-.59.06,1.32,1.32,0,0,1-.86-.23.8.8,0,0,1-.27-.64,5.66,5.66,0,0,1,.15-.88l.36-1.67Zm2.69-.84.73,4.16c-.23.52-.51.78-.85.78a1.32,1.32,0,0,1-.39-.06l-.1.84a2.77,2.77,0,0,0,.8.13,1.41,1.41,0,0,0,.61-.13,1.39,1.39,0,0,0,.44-.36,6.2,6.2,0,0,0,.49-.79l2.57-4.57H97l-1,1.85a9.1,9.1,0,0,0-.61,1.34c0-.21-.05-.58-.13-1.11L95,128.57Zm7.88,1.16-1.1-.09a1.68,1.68,0,0,1,.66-.86,2.17,2.17,0,0,1,1.24-.31,1.88,1.88,0,0,1,1.19.32,1,1,0,0,1,.38.79,2.8,2.8,0,0,1,0,.4c0,.14-.1.51-.24,1.11a5.64,5.64,0,0,0-.16,1,2.29,2.29,0,0,0,.09.59h-1.09a1.85,1.85,0,0,1-.08-.47,1.91,1.91,0,0,1-.57.42,1.51,1.51,0,0,1-.65.15,1.15,1.15,0,0,1-.85-.34,1.19,1.19,0,0,1-.33-.87,1.3,1.3,0,0,1,.36-1,2.16,2.16,0,0,1,1.33-.43,5.16,5.16,0,0,0,1.07-.16,1.72,1.72,0,0,0,.07-.38.37.37,0,0,0-.15-.3.65.65,0,0,0-.43-.12.8.8,0,0,0-.47.12.6.6,0,0,0-.24.34Zm1.07,1.05a1.46,1.46,0,0,1-.27.05,2.58,2.58,0,0,0-1.1.3.47.47,0,0,0-.19.39.49.49,0,0,0,.14.34.52.52,0,0,0,.37.13,1,1,0,0,0,.48-.12.88.88,0,0,0,.34-.32,2.49,2.49,0,0,0,.2-.62l0-.15Zm2.65-2.21h1.07l-.11.55a2.87,2.87,0,0,1,.75-.5,1.85,1.85,0,0,1,.74-.15,1.09,1.09,0,0,1,.81.3,1.06,1.06,0,0,1,.29.79,4.83,4.83,0,0,1-.14.82l-.5,2.35h-1.12l.51-2.36a5.81,5.81,0,0,0,.11-.63.42.42,0,0,0-.13-.34.45.45,0,0,0-.35-.13,1,1,0,0,0-.56.21,1.4,1.4,0,0,0-.47.55,4.25,4.25,0,0,0-.3,1l-.35,1.71h-1.12l.87-4.16Zm7.8,4.16h-1.06l.09-.45a2,2,0,0,1-.6.43,1.78,1.78,0,0,1-.67.12,1.32,1.32,0,0,1-1-.44,1.86,1.86,0,0,1-.4-1.3,3.06,3.06,0,0,1,.57-1.81,1.76,1.76,0,0,1,1.51-.81,1.39,1.39,0,0,1,1.27.67l.47-2.14h1.12l-1.26,5.73ZM110.66,131a1,1,0,0,0,.23.7.7.7,0,0,0,.56.25.91.91,0,0,0,.57-.21,1.42,1.42,0,0,0,.43-.64,2.54,2.54,0,0,0,.16-.83,1,1,0,0,0-.25-.73.71.71,0,0,0-.56-.28.93.93,0,0,0-.82.55,2.26,2.26,0,0,0-.32,1.19Zm5.69.53,1.09-.17a1.14,1.14,0,0,0,.36.49,1.08,1.08,0,0,0,.58.14,1,1,0,0,0,.61-.17.35.35,0,0,0,.16-.29.28.28,0,0,0-.08-.21,1.68,1.68,0,0,0-.46-.21,5,5,0,0,1-1.26-.53,1,1,0,0,1-.37-.8,1.16,1.16,0,0,1,.36-.85,2.07,2.07,0,0,1,1.52-.5,2.12,2.12,0,0,1,1.21.29,1.36,1.36,0,0,1,.52.8l-1,.18a.64.64,0,0,0-.26-.34,1.16,1.16,0,0,0-.6-.15.82.82,0,0,0-.5.11.33.33,0,0,0-.16.27.31.31,0,0,0,.16.26,2.56,2.56,0,0,0,.63.22,3.39,3.39,0,0,1,1.09.47,1,1,0,0,1,.39.79,1.35,1.35,0,0,1-.5,1,2,2,0,0,1-1.39.43,2.46,2.46,0,0,1-1.39-.33,1.64,1.64,0,0,1-.67-.93Zm5.76-4.57h1.12l-.21,1H121.9l.21-1Zm-.33,1.57h1.12l-.87,4.16h-1.12l.87-4.16Zm2.16,0H125l-.09.5a1.84,1.84,0,0,1,1.3-.6,1.16,1.16,0,0,1,.72.19.89.89,0,0,1,.33.54,1.61,1.61,0,0,1,.62-.52,1.73,1.73,0,0,1,.83-.21,1.07,1.07,0,0,1,.78.27.93.93,0,0,1,.28.71,4,4,0,0,1-.12.75l-.54,2.53H128l.54-2.53c.06-.32.1-.5.1-.55a.39.39,0,0,0-.1-.28.44.44,0,0,0-.32-.1,1,1,0,0,0-.76.44,3.2,3.2,0,0,0-.41,1.14l-.39,1.88h-1.12l.52-2.52a3.8,3.8,0,0,0,.09-.56.37.37,0,0,0-.11-.28.41.41,0,0,0-.31-.1.75.75,0,0,0-.37.11,1,1,0,0,0-.35.3,1.79,1.79,0,0,0-.25.5c0,.09-.09.31-.16.64l-.4,1.91h-1.12l.87-4.16Zm7.07,0h1.06L132,129a2.52,2.52,0,0,1,.64-.41,1.69,1.69,0,0,1,.64-.12,1.35,1.35,0,0,1,1,.45,2,2,0,0,1,.4,1.35,2.76,2.76,0,0,1-.69,1.9,1.81,1.81,0,0,1-1.4.66,1.39,1.39,0,0,1-1.25-.66l-.44,2.14h-1.12l1.19-5.74Zm.67,2.39a1.12,1.12,0,0,0,.24.76.73.73,0,0,0,.56.27.88.88,0,0,0,.54-.2,1.49,1.49,0,0,0,.44-.68,2.62,2.62,0,0,0,.17-.87,1.05,1.05,0,0,0-.23-.72.72.72,0,0,0-.57-.25.91.91,0,0,0-.59.23,1.46,1.46,0,0,0-.41.68,2.42,2.42,0,0,0-.15.78Zm3.35,1.77,1.2-5.73h1.12l-1.2,5.73Zm3.4-5.73h1.12l-.21,1h-1.12l.21-1Zm-.33,1.57-.87,4.16h1.12l.87-4.16Zm4.13,2.6,1.09.17a2.29,2.29,0,0,1-.8,1.11,2,2,0,0,1-1.22.38,1.71,1.71,0,0,1-1.26-.47,1.79,1.79,0,0,1-.46-1.31,3,3,0,0,1,.28-1.28,2.12,2.12,0,0,1,.85-1,2.32,2.32,0,0,1,1.24-.35,1.73,1.73,0,0,1,1.17.38,1.46,1.46,0,0,1,.49,1l-1.06.11a.81.81,0,0,0-.22-.51.61.61,0,0,0-.45-.17.92.92,0,0,0-.61.24,1.67,1.67,0,0,0-.43.73,3.14,3.14,0,0,0-.15.91.81.81,0,0,0,.18.57.59.59,0,0,0,.45.2.84.84,0,0,0,.52-.19,1.45,1.45,0,0,0,.39-.59ZM145,127h1.12l-.22,1h-1.12l.22-1Zm-.33,1.57h1.12l-.87,4.16h-1.12l.87-4.16Zm1.6.84.17-.84H147l.14-.65,1.27-.77-.29,1.42h.68l-.17.84H148l-.37,1.75c-.06.31-.1.49-.1.54a.28.28,0,0,0,.08.2.47.47,0,0,0,.3.07l.37,0-.18.83a2.88,2.88,0,0,1-.59.06,1.34,1.34,0,0,1-.86-.23.8.8,0,0,1-.27-.64,5.66,5.66,0,0,1,.15-.88l.36-1.67Zm2.69-.84.73,4.16c-.22.52-.51.78-.85.78a1.32,1.32,0,0,1-.39-.06l-.1.84a2.77,2.77,0,0,0,.8.13,1.41,1.41,0,0,0,.61-.13,1.39,1.39,0,0,0,.44-.36,6,6,0,0,0,.5-.79l2.56-4.57h-1.19l-1,1.85a9.1,9.1,0,0,0-.61,1.34q0-.31-.12-1.11l-.28-2.08Zm5.26-1.57h1.13l-.18.89a2,2,0,0,1-.52,1.1,1.35,1.35,0,0,1-.92.34l.11-.52a.78.78,0,0,0,.43-.23,1.06,1.06,0,0,0,.24-.5H154l.23-1.08Zm1.89,0h1.13l-.18.89a2.05,2.05,0,0,1-.52,1.1,1.32,1.32,0,0,1-.91.34l.1-.52a.81.81,0,0,0,.44-.23,1.06,1.06,0,0,0,.23-.5h-.51Z" style="fill:#2b2a29;fill-rule:evenodd"/><polygon points="63.75 72.05 77.8 72.05 90.74 23.75 76.7 23.75 70.78 45.84 64.86 23.75 50.81 23.75 44.89 45.84 38.97 23.75 24.93 23.75 37.87 72.05 51.91 72.05 51.91 72.05 57.83 49.96 63.75 72.05" style="fill:#2b2a29;fill-rule:evenodd"/><path d="M76.7,23.75h14l5.92,22.09,5.92-22.09h14l6,22.23c3-11,6-22,8.83-32.57l-7.07-.27L141.65.58l8.61,19.5-5.9-3.2c-4.73,17.66-10,37.2-14.82,55l0,.13h-.07v0l-14,0L109.6,50l-5.92,22.09h-14Z" style="fill:#59b5e7;fill-rule:evenodd"/><path d="M171.08,90.11a4.92,4.92,0,0,1-.61,2.43,5.3,5.3,0,0,1-1.9,1.86,10.28,10.28,0,0,1-3.28,1.2,23.19,23.19,0,0,1-4.73.41h-1.73c-.05.29-.09.58-.11.86a7.28,7.28,0,0,0,0,.78,3,3,0,0,0,.79,2.29,3.51,3.51,0,0,0,2.54.78,12.51,12.51,0,0,0,2.23-.18,16,16,0,0,0,1.73-.4q.75-.21,1.23-.39a2.43,2.43,0,0,1,.72-.18.37.37,0,0,1,.32.13.76.76,0,0,1,.09.41,5.23,5.23,0,0,1-.06.74,5.93,5.93,0,0,1-.16.82,3.78,3.78,0,0,1-.26.76,1.55,1.55,0,0,1-.37.54,2.53,2.53,0,0,1-.82.46,12,12,0,0,1-1.45.41c-.57.12-1.2.23-1.9.31a19,19,0,0,1-2.15.12,11.84,11.84,0,0,1-3.15-.37,6.14,6.14,0,0,1-2.25-1.15,4.76,4.76,0,0,1-1.35-2A8,8,0,0,1,154,98a17.58,17.58,0,0,1,.23-2.7,14.59,14.59,0,0,1,.77-2.84,14,14,0,0,1,1.35-2.68,10,10,0,0,1,2-2.25A9.78,9.78,0,0,1,161,85.93a9.88,9.88,0,0,1,3.52-.58,9.46,9.46,0,0,1,2.94.4,6.08,6.08,0,0,1,2,1.07,4.48,4.48,0,0,1,1.17,1.53,4.18,4.18,0,0,1,.39,1.76ZM23.93,102.62a2.45,2.45,0,0,1-.43.72,1.37,1.37,0,0,1-.66.4,4,4,0,0,1-1,.17c-.42,0-.95,0-1.59,0s-1.23,0-1.65,0a3.18,3.18,0,0,1-1-.16.77.77,0,0,1-.48-.36,1.47,1.47,0,0,1-.15-.64l-.89-15.6h0L9.28,102.62a3.36,3.36,0,0,1-.4.72,1.26,1.26,0,0,1-.58.4,3.27,3.27,0,0,1-1,.17c-.41,0-.94,0-1.59,0s-1.36,0-1.81,0a3.55,3.55,0,0,1-1-.17.74.74,0,0,1-.49-.41,2.14,2.14,0,0,1-.15-.77L.93,81.15a5.52,5.52,0,0,1,0-1,.7.7,0,0,1,.31-.53,1.6,1.6,0,0,1,.78-.23c.34,0,.83-.05,1.46-.05s.94,0,1.29.05a2.4,2.4,0,0,1,.78.17.54.54,0,0,1,.32.33,1.65,1.65,0,0,1,.07.54L6.46,99h0l8.22-18.55a2.32,2.32,0,0,1,.33-.57,1.19,1.19,0,0,1,.49-.34,3.39,3.39,0,0,1,.84-.16c.35,0,.81,0,1.38,0s1,0,1.38,0a2.5,2.5,0,0,1,.77.16.61.61,0,0,1,.34.35,2.24,2.24,0,0,1,.09.6L21.28,99h0l8-18.77a1.35,1.35,0,0,1,.26-.44,1,1,0,0,1,.47-.28,4.52,4.52,0,0,1,.84-.13c.35,0,.8,0,1.35,0a10.08,10.08,0,0,1,1.27.07.93.93,0,0,1,.63.27.68.68,0,0,1,.06.61,9.84,9.84,0,0,1-.4,1.07l-9.86,21.22Zm26-10.56a8.48,8.48,0,0,0-.45-2.87,5.29,5.29,0,0,0-1.37-2.1,6.05,6.05,0,0,0-2.31-1.3,10.63,10.63,0,0,0-3.28-.44,10.78,10.78,0,0,0-3.48.52A10,10,0,0,0,36.3,87.3a9.81,9.81,0,0,0-2,2.12A12.34,12.34,0,0,0,32.85,92a14.24,14.24,0,0,0-.8,2.78,15.81,15.81,0,0,0-.25,2.79,8.42,8.42,0,0,0,.45,2.86,5.26,5.26,0,0,0,1.37,2.11,6.19,6.19,0,0,0,2.31,1.3,10.94,10.94,0,0,0,3.28.44,10.51,10.51,0,0,0,3.48-.53,9.76,9.76,0,0,0,2.74-1.43,10,10,0,0,0,2-2.11,12.48,12.48,0,0,0,1.4-2.56,14.54,14.54,0,0,0,.8-2.79,15.89,15.89,0,0,0,.25-2.79ZM45,92.38a12.1,12.1,0,0,1-.13,1.77A12.73,12.73,0,0,1,44.5,96a10.27,10.27,0,0,1-.72,1.74,6.9,6.9,0,0,1-1,1.44,4.65,4.65,0,0,1-1.35,1,3.74,3.74,0,0,1-1.69.37,3.83,3.83,0,0,1-1.4-.23,2.21,2.21,0,0,1-.94-.65,2.39,2.39,0,0,1-.53-1,5.47,5.47,0,0,1-.16-1.41,12.34,12.34,0,0,1,.13-1.78,12.73,12.73,0,0,1,.41-1.83A9.74,9.74,0,0,1,38,91.87a6.41,6.41,0,0,1,1-1.44,4.61,4.61,0,0,1,1.35-1A3.74,3.74,0,0,1,42,89.07a3.83,3.83,0,0,1,1.4.23,2.21,2.21,0,0,1,.94.65,2.46,2.46,0,0,1,.53,1,5.44,5.44,0,0,1,.16,1.4Zm20.62-6.22a4.07,4.07,0,0,1,0,.47c0,.22-.06.49-.11.79s-.12.61-.19.93-.16.62-.25.89a3.63,3.63,0,0,1-.32.68.5.5,0,0,1-.39.26,1,1,0,0,1-.34-.06L63.65,90l-.46-.13a2.34,2.34,0,0,0-.56-.06,2.41,2.41,0,0,0-1.36.49,6.34,6.34,0,0,0-1.39,1.28,9.3,9.3,0,0,0-1.17,1.87A8.75,8.75,0,0,0,58,95.66l-1.5,7.54a.77.77,0,0,1-.18.33,1.08,1.08,0,0,1-.43.23,3.34,3.34,0,0,1-.76.14,9.62,9.62,0,0,1-1.15,0,9,9,0,0,1-1.14,0,2.68,2.68,0,0,1-.7-.14.59.59,0,0,1-.32-.23.47.47,0,0,1,0-.33l3.35-16.8a.66.66,0,0,1,.17-.33.81.81,0,0,1,.38-.22,3.73,3.73,0,0,1,.66-.14,9,9,0,0,1,1,0,8.31,8.31,0,0,1,.95,0,2.62,2.62,0,0,1,.57.14.44.44,0,0,1,.27.22.46.46,0,0,1,0,.33l-.52,2.67a8.72,8.72,0,0,1,1-1.48,8.14,8.14,0,0,1,1.26-1.18,6.38,6.38,0,0,1,1.38-.78,3.81,3.81,0,0,1,1.41-.28l.58,0,.54.1a2.39,2.39,0,0,1,.45.14,1.52,1.52,0,0,1,.32.18.5.5,0,0,1,.11.36Zm4.36,17L75,78.46a.49.49,0,0,0,0-.34.57.57,0,0,0-.32-.25,2.72,2.72,0,0,0-.68-.16,8.9,8.9,0,0,0-1.14-.06,9.24,9.24,0,0,0-1.16.06,3.84,3.84,0,0,0-.76.16,1,1,0,0,0-.43.25.69.69,0,0,0-.17.34l-5,24.74a.47.47,0,0,0,0,.33.58.58,0,0,0,.33.23,2.43,2.43,0,0,0,.68.14,9.3,9.3,0,0,0,1.16,0,9.62,9.62,0,0,0,1.15,0,3.14,3.14,0,0,0,.75-.14,1,1,0,0,0,.42-.23.6.6,0,0,0,.18-.33Zm20.34,0a.77.77,0,0,1-.59.56,5.69,5.69,0,0,1-1.67.17,8.2,8.2,0,0,1-.95,0,2.1,2.1,0,0,1-.59-.12.46.46,0,0,1-.29-.22.51.51,0,0,1,0-.35l.51-2.69a5.15,5.15,0,0,1-.91,1.27A8.07,8.07,0,0,1,84.38,103a8.16,8.16,0,0,1-1.88.9,6.31,6.31,0,0,1-2.11.35,5.81,5.81,0,0,1-1.87-.27,4.33,4.33,0,0,1-1.38-.74,4.37,4.37,0,0,1-1-1.11,6.62,6.62,0,0,1-.6-1.36,8.12,8.12,0,0,1-.32-1.48,12.54,12.54,0,0,1-.09-1.49,16.65,16.65,0,0,1,.22-2.63,16.44,16.44,0,0,1,.71-2.78,15.53,15.53,0,0,1,1.21-2.66,10.08,10.08,0,0,1,1.76-2.26,8.17,8.17,0,0,1,2.35-1.56,7.34,7.34,0,0,1,3-.58,5.78,5.78,0,0,1,1.4.16,5.57,5.57,0,0,1,1.23.43,4.91,4.91,0,0,1,1,.65,4.76,4.76,0,0,1,.77.79l1.79-8.86a.73.73,0,0,1,.17-.34.94.94,0,0,1,.42-.25,3.24,3.24,0,0,1,.76-.16,9.07,9.07,0,0,1,1.15-.06,8.68,8.68,0,0,1,1.14.06,2.34,2.34,0,0,1,.69.16.57.57,0,0,1,.32.25.55.55,0,0,1,0,.34l-4.93,24.7ZM88,91.46a5.14,5.14,0,0,0-1.46-1.56,3.29,3.29,0,0,0-1.85-.53,2.76,2.76,0,0,0-1.42.37,4,4,0,0,0-1.17,1,6,6,0,0,0-.9,1.43,10.68,10.68,0,0,0-.64,1.72,14.48,14.48,0,0,0-.39,1.8,11.74,11.74,0,0,0-.13,1.72,4,4,0,0,0,.47,2.15,1.65,1.65,0,0,0,1.49.72,3.39,3.39,0,0,0,1.69-.49,6.91,6.91,0,0,0,1.62-1.34,9.15,9.15,0,0,0,1.32-2A10.06,10.06,0,0,0,87.48,94L88,91.46Zm35.64-5.17a2.58,2.58,0,0,1-.07.6c0,.21-.1.39-.15.55-.47,1.35-1,2.71-1.54,4.07s-1.16,2.7-1.82,4-1.36,2.64-2.12,3.92-1.55,2.51-2.4,3.7a1.21,1.21,0,0,1-.45.42,2.26,2.26,0,0,1-.65.25,4.54,4.54,0,0,1-.88.1c-.33,0-.7,0-1.13,0a11.91,11.91,0,0,1-1.3,0,2.72,2.72,0,0,1-.78-.16.65.65,0,0,1-.37-.31,1.14,1.14,0,0,1-.12-.49L109,92.59l-4.63,10.31a2.41,2.41,0,0,1-.33.53,1.15,1.15,0,0,1-.52.31,3.94,3.94,0,0,1-.93.16c-.38,0-.88,0-1.49,0s-1.1,0-1.48,0a3.23,3.23,0,0,1-.88-.16.72.72,0,0,1-.43-.31,1,1,0,0,1-.15-.49L96.72,87.76a2.85,2.85,0,0,1,0-.44c0-.16,0-.3,0-.43a1.87,1.87,0,0,1,.07-.58.68.68,0,0,1,.34-.37,2.61,2.61,0,0,1,.76-.21,12.22,12.22,0,0,1,1.37-.06c.49,0,.88,0,1.16,0a2.35,2.35,0,0,1,.67.14.51.51,0,0,1,.31.25.93.93,0,0,1,.08.39l.81,12.34,0,.22.11-.22,5.53-12.34a1.28,1.28,0,0,1,.24-.39.87.87,0,0,1,.41-.25,2.86,2.86,0,0,1,.72-.14c.29,0,.66,0,1.1,0s.84,0,1.12,0a3.45,3.45,0,0,1,.68.14.63.63,0,0,1,.34.22.76.76,0,0,1,.11.33l1,12.38,0,.21.11-.21c.47-.8.93-1.69,1.4-2.67s.94-2,1.39-3.07.87-2.16,1.28-3.27.76-2.22,1.09-3.29a.65.65,0,0,1,.18-.4,1.17,1.17,0,0,1,.46-.24,3.33,3.33,0,0,1,.77-.14q.47,0,1.2,0c.47,0,.84,0,1.13,0a3.56,3.56,0,0,1,.67.12.57.57,0,0,1,.31.19.47.47,0,0,1,.07.28Zm4.88,16.91a.77.77,0,0,1-.18.33,1.13,1.13,0,0,1-.44.23,3.13,3.13,0,0,1-.76.14,9.35,9.35,0,0,1-1.14,0,9,9,0,0,1-1.14,0,2.6,2.6,0,0,1-.7-.14.58.58,0,0,1-.33-.23.53.53,0,0,1,0-.33l3.33-16.74a.67.67,0,0,1,.18-.33,1.13,1.13,0,0,1,.44-.25,3.57,3.57,0,0,1,.75-.16c.3,0,.69,0,1.15,0a11.31,11.31,0,0,1,1.14,0,2.92,2.92,0,0,1,.7.16.6.6,0,0,1,.33.25.51.51,0,0,1,0,.33l-3.33,16.74Zm4.85-22.42A5.06,5.06,0,0,1,133,82a2,2,0,0,1-.6.77,2.23,2.23,0,0,1-.92.42,6.53,6.53,0,0,1-1.36.12,5.61,5.61,0,0,1-1.28-.12,1.37,1.37,0,0,1-.76-.42,1.3,1.3,0,0,1-.29-.77,4.31,4.31,0,0,1,.11-1.17,4.73,4.73,0,0,1,.36-1.15,2.19,2.19,0,0,1,.6-.77,2.36,2.36,0,0,1,.93-.44,6.29,6.29,0,0,1,1.35-.13,5.57,5.57,0,0,1,1.29.13,1.46,1.46,0,0,1,.75.44,1.28,1.28,0,0,1,.28.77,4.57,4.57,0,0,1-.1,1.15Zm15.48,22.44a.77.77,0,0,1-.59.56,5.64,5.64,0,0,1-1.67.17,8.31,8.31,0,0,1-.95,0,2.1,2.1,0,0,1-.59-.12.46.46,0,0,1-.29-.22.66.66,0,0,1,0-.35l.51-2.69a5.36,5.36,0,0,1-.9,1.27,8.51,8.51,0,0,1-1.47,1.22,8.29,8.29,0,0,1-1.87.9,6.37,6.37,0,0,1-2.12.35A5.85,5.85,0,0,1,137,104a4.38,4.38,0,0,1-1.37-.74,4.18,4.18,0,0,1-1-1.11,6.65,6.65,0,0,1-.61-1.36,9.06,9.06,0,0,1-.32-1.48,12.54,12.54,0,0,1-.09-1.49,16.72,16.72,0,0,1,.23-2.63,16.08,16.08,0,0,1,1.91-5.44,10.08,10.08,0,0,1,1.76-2.26,8.21,8.21,0,0,1,2.36-1.56,7.27,7.27,0,0,1,3-.58,5.83,5.83,0,0,1,1.4.16,5.67,5.67,0,0,1,1.22.43,5,5,0,0,1,1,.65,5.2,5.2,0,0,1,.77.79l1.79-8.86a.71.71,0,0,1,.16-.34.92.92,0,0,1,.43-.25,3,3,0,0,1,.75-.16,9.24,9.24,0,0,1,1.16-.06,8.9,8.9,0,0,1,1.14.06,2.34,2.34,0,0,1,.68.16.57.57,0,0,1,.32.25.55.55,0,0,1,0,.34l-4.93,24.7Zm-2.35-11.76a5.14,5.14,0,0,0-1.46-1.56,3.29,3.29,0,0,0-1.85-.53,2.76,2.76,0,0,0-1.42.37,4.31,4.31,0,0,0-1.17,1,6.71,6.71,0,0,0-.9,1.43,10.68,10.68,0,0,0-.64,1.72,14.48,14.48,0,0,0-.39,1.8,13.31,13.31,0,0,0-.13,1.72,4,4,0,0,0,.47,2.15,1.66,1.66,0,0,0,1.49.72,3.37,3.37,0,0,0,1.69-.49,6.72,6.72,0,0,0,1.62-1.34A9.34,9.34,0,0,0,146,94l.53-2.56Zm19.92-1a1.59,1.59,0,0,0-.59-1.25,2.63,2.63,0,0,0-1.72-.5,4.14,4.14,0,0,0-1.69.34,4.27,4.27,0,0,0-1.3.92,5.42,5.42,0,0,0-1,1.35,8.55,8.55,0,0,0-.65,1.66h1.58a13.76,13.76,0,0,0,2.52-.19,5.62,5.62,0,0,0,1.64-.54,2.3,2.3,0,0,0,.9-.8A1.83,1.83,0,0,0,166.43,90.46Z" style="fill:#59b5e7;fill-rule:evenodd"/><path d="M64.65,109.58s0,.12,0,.21,0,.19,0,.3,0,.22-.07.33a2.26,2.26,0,0,1-.1.31,1,1,0,0,1-.14.23.2.2,0,0,1-.15.09.61.61,0,0,1-.32-.11,4.85,4.85,0,0,0-.47-.25,4.68,4.68,0,0,0-.65-.25,3,3,0,0,0-.84-.11,2.19,2.19,0,0,0-.82.14,1.73,1.73,0,0,0-.56.35,1.49,1.49,0,0,0-.42,1.06,1,1,0,0,0,.16.57,1.93,1.93,0,0,0,.44.47,5.13,5.13,0,0,0,.62.41l.71.41c.24.15.47.31.71.48a3.51,3.51,0,0,1,.62.6,2.8,2.8,0,0,1,.43.78,2.85,2.85,0,0,1,.17,1,3.69,3.69,0,0,1-.35,1.58,4,4,0,0,1-1,1.27,4.8,4.8,0,0,1-1.53.84,6,6,0,0,1-2,.31,5.22,5.22,0,0,1-1.08-.1,5.59,5.59,0,0,1-.88-.23,3.31,3.31,0,0,1-.65-.29,2,2,0,0,1-.39-.28.61.61,0,0,1-.12-.41,1,1,0,0,1,0-.22c0-.1,0-.2,0-.31s.05-.23.08-.35a2,2,0,0,1,.11-.32.89.89,0,0,1,.14-.24.21.21,0,0,1,.16-.09.71.71,0,0,1,.37.14,4.68,4.68,0,0,0,.53.31,4.47,4.47,0,0,0,.75.31,3.22,3.22,0,0,0,1,.15,2.91,2.91,0,0,0,.94-.14,2.09,2.09,0,0,0,.68-.36,1.56,1.56,0,0,0,.41-.55,1.53,1.53,0,0,0,.14-.68,1.07,1.07,0,0,0-.16-.59,1.86,1.86,0,0,0-.43-.46,4.05,4.05,0,0,0-.61-.41l-.69-.4q-.34-.23-.69-.48a2.84,2.84,0,0,1-.61-.59,3,3,0,0,1-.43-.78,3.25,3.25,0,0,1-.16-1,3.57,3.57,0,0,1,.32-1.5,3.5,3.5,0,0,1,.91-1.18,4.19,4.19,0,0,1,1.38-.77,5.57,5.57,0,0,1,1.77-.28,6,6,0,0,1,.87.07,5.15,5.15,0,0,1,.75.18,2.51,2.51,0,0,1,.57.23,1.58,1.58,0,0,1,.33.21.68.68,0,0,1,.13.18.61.61,0,0,1,0,.24Zm8.71,4.21a2.33,2.33,0,0,1-.3,1.18,2.43,2.43,0,0,1-.91.89,5.21,5.21,0,0,1-1.57.58,11.5,11.5,0,0,1-2.28.2h-.83c0,.14,0,.27,0,.41s0,.26,0,.38a1.48,1.48,0,0,0,.38,1.1,1.68,1.68,0,0,0,1.22.37,6.87,6.87,0,0,0,1.07-.08,6.34,6.34,0,0,0,.83-.2l.6-.19a1,1,0,0,1,.34-.08.16.16,0,0,1,.15.06.34.34,0,0,1,.05.2,2.36,2.36,0,0,1,0,.35,2.45,2.45,0,0,1-.08.39,2,2,0,0,1-.12.37.66.66,0,0,1-.18.26,1,1,0,0,1-.4.22,4.13,4.13,0,0,1-.69.2c-.27.06-.58.11-.92.15a8.77,8.77,0,0,1-1,.06,5.71,5.71,0,0,1-1.52-.18,2.9,2.9,0,0,1-1.08-.55,2.28,2.28,0,0,1-.65-.95,3.73,3.73,0,0,1-.22-1.36,8.66,8.66,0,0,1,.11-1.3,7.31,7.31,0,0,1,.37-1.37,6.5,6.5,0,0,1,.65-1.29,4.75,4.75,0,0,1,1-1.08,4.55,4.55,0,0,1,3-1,4.5,4.5,0,0,1,1.41.19,2.92,2.92,0,0,1,1,.52,2,2,0,0,1,.56.74,1.91,1.91,0,0,1,.19.84Zm-2.25.17a.78.78,0,0,0-.28-.61,1.23,1.23,0,0,0-.82-.24,1.92,1.92,0,0,0-.81.17,2.06,2.06,0,0,0-.62.44,2.64,2.64,0,0,0-.47.65,4.28,4.28,0,0,0-.31.8h.75a6.79,6.79,0,0,0,1.21-.09,2.61,2.61,0,0,0,.79-.26,1.17,1.17,0,0,0,.43-.39.88.88,0,0,0,.13-.47Zm9.65-2.07a2.13,2.13,0,0,1,0,.22c0,.11,0,.24-.06.38a3.58,3.58,0,0,1-.09.45c0,.15-.08.3-.12.43a1.69,1.69,0,0,1-.16.33.23.23,0,0,1-.18.12.41.41,0,0,1-.16,0l-.19-.06-.21-.07a1.14,1.14,0,0,0-.28,0,1.16,1.16,0,0,0-.65.24,3.17,3.17,0,0,0-.66.62,5,5,0,0,0-.57.9,4.47,4.47,0,0,0-.35,1.07l-.73,3.64a.29.29,0,0,1-.09.16.51.51,0,0,1-.21.11,2,2,0,0,1-.37.07l-.55,0-.55,0a1.68,1.68,0,0,1-.33-.07.34.34,0,0,1-.16-.11.22.22,0,0,1,0-.16l1.61-8.1a.35.35,0,0,1,.08-.16.56.56,0,0,1,.19-.11,1.7,1.7,0,0,1,.31-.06,3.17,3.17,0,0,1,.46,0,3,3,0,0,1,.46,0,1.1,1.1,0,0,1,.27.06.27.27,0,0,1,.14.11.29.29,0,0,1,0,.16l-.24,1.29a3.62,3.62,0,0,1,.5-.71,4,4,0,0,1,.6-.57,2.74,2.74,0,0,1,.66-.37,1.88,1.88,0,0,1,.68-.14l.28,0,.26,0,.22.07a.54.54,0,0,1,.15.09s.05.09.05.17Zm8.67.06a1.2,1.2,0,0,1,0,.24c0,.1-.05.2-.08.31-.23.65-.48,1.31-.75,2s-.57,1.31-.89,2-.68,1.27-1.06,1.88a20.23,20.23,0,0,1-1.23,1.79.7.7,0,0,1-.22.2,1.11,1.11,0,0,1-.31.12,1.73,1.73,0,0,1-.42,0h-.57l-.78,0a1.93,1.93,0,0,1-.45-.08.32.32,0,0,1-.2-.15.43.43,0,0,1-.06-.24l-1-7.27c0-.1,0-.19,0-.27a2.09,2.09,0,0,1,0-.24.72.72,0,0,1,0-.28.32.32,0,0,1,.17-.15.9.9,0,0,1,.35-.08,5,5,0,0,1,.62,0,4.54,4.54,0,0,1,.57,0,1.14,1.14,0,0,1,.32.06.31.31,0,0,1,.15.12.87.87,0,0,1,0,.19l.68,5.94v.22l0-.08a15.84,15.84,0,0,0,.85-1.4c.25-.47.48-1,.7-1.45s.42-1,.6-1.55.38-1.09.56-1.68a.35.35,0,0,1,.1-.19.45.45,0,0,1,.22-.12,1.68,1.68,0,0,1,.37-.06,5,5,0,0,1,.58,0,4.19,4.19,0,0,1,.54,0,1.78,1.78,0,0,1,.33,0,.31.31,0,0,1,.16.09.29.29,0,0,1,0,.14Zm4.66-2.67a3.2,3.2,0,0,1-.18.57,1,1,0,0,1-.29.37,1.16,1.16,0,0,1-.45.2,3.1,3.1,0,0,1-.66.06,2.56,2.56,0,0,1-.61-.06.7.7,0,0,1-.36-.2.56.56,0,0,1-.14-.37,2,2,0,0,1,0-.57,2.38,2.38,0,0,1,.17-.55,1.09,1.09,0,0,1,.29-.37,1.06,1.06,0,0,1,.44-.21,2.93,2.93,0,0,1,.65-.07,2.61,2.61,0,0,1,.63.07.64.64,0,0,1,.37.21.62.62,0,0,1,.14.37,2.94,2.94,0,0,1,0,.55ZM91.74,120.1a.29.29,0,0,1-.09.16.51.51,0,0,1-.21.11,2,2,0,0,1-.37.07l-.55,0-.55,0a1.68,1.68,0,0,1-.33-.07.34.34,0,0,1-.16-.11.22.22,0,0,1,0-.16L91.06,112a.29.29,0,0,1,.09-.16.42.42,0,0,1,.21-.12,1.43,1.43,0,0,1,.36-.07,4.28,4.28,0,0,1,.56,0,4,4,0,0,1,.54,0,1.18,1.18,0,0,1,.34.07.3.3,0,0,1,.16.12.29.29,0,0,1,0,.16l-1.6,8.07Zm9.69-7.54a2.9,2.9,0,0,1-.05.47,4.1,4.1,0,0,1-.14.5,1.43,1.43,0,0,1-.2.39.33.33,0,0,1-.27.16.42.42,0,0,1-.26-.11l-.31-.25a2.26,2.26,0,0,0-.47-.25,1.87,1.87,0,0,0-.72-.12,1.66,1.66,0,0,0-.84.21,2.26,2.26,0,0,0-.65.54,3.21,3.21,0,0,0-.46.76,6.61,6.61,0,0,0-.3.85,6.94,6.94,0,0,0-.16.82,4.65,4.65,0,0,0,0,.69,1.74,1.74,0,0,0,.32,1.12,1.25,1.25,0,0,0,1,.38,2.48,2.48,0,0,0,.87-.14,3.28,3.28,0,0,0,.62-.28l.45-.29a.58.58,0,0,1,.34-.13.12.12,0,0,1,.12.08.55.55,0,0,1,0,.24,3.28,3.28,0,0,1,0,.39,3.78,3.78,0,0,1-.1.46,3,3,0,0,1-.13.45.92.92,0,0,1-.2.32,2.66,2.66,0,0,1-.38.26,3.85,3.85,0,0,1-.61.27,5.13,5.13,0,0,1-.75.19,5.57,5.57,0,0,1-.83.07,3.08,3.08,0,0,1-2.32-.79,3.18,3.18,0,0,1-.77-2.32,6.79,6.79,0,0,1,.11-1.21,6.5,6.5,0,0,1,.34-1.33,6.07,6.07,0,0,1,.61-1.29,4.65,4.65,0,0,1,.91-1.11,4.4,4.4,0,0,1,1.27-.77,4.18,4.18,0,0,1,1.64-.29,5.39,5.39,0,0,1,.71,0,3.62,3.62,0,0,1,.63.16,3,3,0,0,1,.51.22,1.77,1.77,0,0,1,.33.24.5.5,0,0,1,.14.19.54.54,0,0,1,0,.2Zm8.5,1.23a2.43,2.43,0,0,1-.29,1.18,2.51,2.51,0,0,1-.91.89,5.28,5.28,0,0,1-1.58.58,11.39,11.39,0,0,1-2.27.2h-.83l-.06.41c0,.14,0,.26,0,.38a1.48,1.48,0,0,0,.37,1.1,1.7,1.7,0,0,0,1.22.37,6.77,6.77,0,0,0,1.07-.08,6.52,6.52,0,0,0,.84-.2l.59-.19a1,1,0,0,1,.35-.08.18.18,0,0,1,.15.06.35.35,0,0,1,0,.2c0,.1,0,.22,0,.35s0,.27-.08.39a2,2,0,0,1-.13.37.78.78,0,0,1-.17.26,1.11,1.11,0,0,1-.4.22,4.27,4.27,0,0,1-.7.2c-.27.06-.58.11-.91.15a8.94,8.94,0,0,1-1,.06,5.76,5.76,0,0,1-1.52-.18,2.9,2.9,0,0,1-1.08-.55,2.28,2.28,0,0,1-.65-.95,3.73,3.73,0,0,1-.22-1.36,7.57,7.57,0,0,1,.12-1.3,7.28,7.28,0,0,1,.36-1.37,7.09,7.09,0,0,1,.65-1.29,4.75,4.75,0,0,1,1-1.08,4.81,4.81,0,0,1,1.31-.75,4.74,4.74,0,0,1,1.7-.28,4.54,4.54,0,0,1,1.41.19,3,3,0,0,1,1,.52,2.14,2.14,0,0,1,.57.74,2,2,0,0,1,.18.84Zm-2.24.17a.81.81,0,0,0-.28-.61,1.25,1.25,0,0,0-.82-.24,1.92,1.92,0,0,0-.81.17,2,2,0,0,0-.63.44,2.64,2.64,0,0,0-.47.65,5.11,5.11,0,0,0-.31.8h.76a6.67,6.67,0,0,0,1.2-.09,2.61,2.61,0,0,0,.79-.26,1.1,1.1,0,0,0,.43-.39.89.89,0,0,0,.14-.47Zm9.59-1.6a2.63,2.63,0,0,1,0,.33,3.67,3.67,0,0,1-.09.43,1.58,1.58,0,0,1-.15.37c-.06.11-.12.16-.19.16a.6.6,0,0,1-.28-.09l-.38-.18a4,4,0,0,0-.53-.19,3,3,0,0,0-.71-.08,2,2,0,0,0-.57.08,1.25,1.25,0,0,0-.41.23.9.9,0,0,0-.25.33,1.06,1.06,0,0,0-.08.4.58.58,0,0,0,.23.47,2.54,2.54,0,0,0,.57.36l.74.35a3.48,3.48,0,0,1,.74.45,2.27,2.27,0,0,1,.57.66,2,2,0,0,1,.23,1,3.18,3.18,0,0,1-.26,1.28,2.86,2.86,0,0,1-.77,1,3.5,3.5,0,0,1-1.22.67,5.11,5.11,0,0,1-1.62.24,5.73,5.73,0,0,1-.84-.06l-.7-.15a2.44,2.44,0,0,1-.53-.21,1.92,1.92,0,0,1-.33-.21.39.39,0,0,1-.1-.16.56.56,0,0,1,0-.2,1.62,1.62,0,0,1,0-.21,1.77,1.77,0,0,1,0-.29c0-.1,0-.2.07-.3a2,2,0,0,1,.09-.29,1.17,1.17,0,0,1,.12-.2.19.19,0,0,1,.14-.08.53.53,0,0,1,.28.11,3.8,3.8,0,0,0,.4.24,2.87,2.87,0,0,0,.6.24,2.82,2.82,0,0,0,.89.12,2,2,0,0,0,.64-.09,1.33,1.33,0,0,0,.46-.24.83.83,0,0,0,.26-.36,1,1,0,0,0,.09-.42.67.67,0,0,0-.23-.52,2.39,2.39,0,0,0-.55-.37l-.73-.35a3.35,3.35,0,0,1-.72-.45,2.22,2.22,0,0,1-.56-.65,2,2,0,0,1-.22-1,2.87,2.87,0,0,1,1-2.16,3.52,3.52,0,0,1,1.14-.64,4.82,4.82,0,0,1,1.53-.23,4.33,4.33,0,0,1,.73,0,5,5,0,0,1,.65.13,2.63,2.63,0,0,1,.5.18.82.82,0,0,1,.3.2A.41.41,0,0,1,117.28,112.36Z" style="fill:#2b2a29;fill-rule:evenodd"/></svg>